<?xml version="1.0" standalone="no"?>
<!DOCTYPE svg PUBLIC "-//W3C//DTD SVG 20010904//EN"
 "http://www.w3.org/TR/2001/REC-SVG-20010904/DTD/svg10.dtd">
<svg version="1.0" xmlns="http://www.w3.org/2000/svg"
 width="620.000000pt" height="473.000000pt" viewBox="0 0 620.000000 473.000000"
 preserveAspectRatio="xMidYMid meet">

<g transform="translate(0.000000,473.000000) scale(0.100000,-0.100000)"
fill="#000000" stroke="none">
<path d="M3094 4641 c-96 -84 -127 -108 -201 -157 -46 -30 -88 -54 -94 -54 -6
0 -8 -7 -4 -17 4 -13 3 -15 -5 -7 -7 7 -35 -2 -98 -33 -48 -24 -130 -59 -182
-78 -52 -20 -102 -39 -110 -44 -8 -4 -46 -14 -85 -21 -38 -8 -72 -17 -75 -20
-3 -3 -21 -5 -40 -6 -57 -1 -199 -28 -194 -36 3 -4 -1 -6 -8 -3 -7 2 -67 1
-132 -3 -122 -7 -141 -15 -111 -45 8 -9 15 -20 15 -26 0 -6 13 -39 29 -73 59
-129 63 -409 11 -710 -10 -59 -16 -117 -13 -129 4 -14 2 -20 -4 -16 -6 4 -14
-16 -21 -51 -60 -332 -73 -424 -78 -532 -3 -70 -1 -158 5 -200 6 -41 12 -86
14 -100 9 -59 20 -101 28 -106 5 -3 7 -10 3 -15 -8 -14 48 -169 60 -162 5 3 6
1 2 -5 -9 -14 25 -83 37 -75 6 3 7 1 3 -5 -8 -13 75 -153 86 -146 4 3 8 -1 8
-8 0 -25 31 -61 43 -49 12 12 -10 44 -24 35 -5 -3 -6 1 -4 8 3 8 -3 23 -14 34
-10 12 -29 40 -40 63 -12 22 -25 41 -30 41 -5 0 -8 6 -8 12 1 7 -16 48 -36 90
-20 42 -37 81 -37 87 0 6 -4 11 -10 11 -5 0 -6 7 -3 17 4 10 2 14 -4 10 -6 -4
-10 5 -10 21 0 15 -11 72 -24 127 -33 144 -31 343 5 553 14 85 23 158 20 164
-4 6 -3 8 3 5 8 -5 23 59 70 318 8 44 16 117 16 161 1 45 6 79 11 77 14 -9 0
366 -17 422 -21 74 -45 127 -55 121 -5 -3 -8 7 -8 22 0 27 0 27 80 29 45 1
126 9 181 18 55 9 130 21 168 26 37 6 65 15 62 20 -4 5 1 6 10 3 18 -7 137 25
131 35 -2 3 8 6 22 7 36 2 253 94 246 105 -3 5 1 6 9 3 8 -3 18 0 22 5 3 6 11
9 16 6 5 -4 9 -2 9 3 0 5 13 12 28 15 46 9 266 163 256 179 -4 7 -2 8 5 4 7
-5 26 6 46 26 41 39 63 42 89 10 31 -39 229 -183 243 -177 8 2 12 1 9 -4 -6
-10 150 -89 296 -149 120 -50 213 -76 343 -97 55 -8 114 -18 130 -21 17 -2 62
-7 100 -11 39 -3 79 -7 90 -8 11 -1 30 -3 43 -4 16 -1 22 -7 22 -26 0 -14 -3
-25 -8 -25 -10 0 -49 -113 -62 -180 -15 -72 -14 -311 0 -425 13 -105 52 -336
80 -480 44 -219 51 -276 57 -421 6 -159 -3 -258 -37 -387 -10 -39 -17 -75 -14
-79 3 -4 1 -8 -5 -8 -6 0 -15 -19 -22 -42 -6 -24 -24 -68 -40 -98 -16 -30 -29
-60 -29 -67 0 -6 -3 -13 -8 -15 -13 -5 -125 -171 -125 -185 0 -6 -4 -10 -8 -8
-3 3 -12 -2 -19 -10 -7 -8 -9 -15 -5 -15 3 0 -7 -12 -24 -26 -17 -14 -28 -31
-24 -36 3 -7 1 -8 -6 -4 -7 4 -37 -16 -74 -49 -34 -32 -80 -69 -102 -84 -22
-14 -42 -28 -45 -31 -3 -4 -22 -14 -43 -24 -22 -10 -35 -22 -31 -28 4 -6 3 -8
-4 -4 -11 7 -142 -72 -142 -86 0 -5 -4 -7 -9 -4 -10 6 -101 -41 -113 -58 -4
-6 -8 -7 -8 -3 0 4 -9 3 -20 -3 -11 -6 -18 -16 -14 -22 4 -6 1 -9 -7 -6 -12 4
-124 -54 -139 -71 -3 -3 -17 -12 -33 -20 -15 -8 -76 -51 -135 -95 l-108 -81
-95 72 c-51 40 -100 70 -107 68 -7 -3 -10 0 -7 5 3 6 0 10 -8 10 -8 0 -21 7
-28 16 -13 15 -164 108 -181 110 -4 1 -13 2 -19 3 -5 0 -7 6 -4 11 3 6 -3 10
-14 10 -12 0 -21 4 -21 10 0 5 -3 9 -7 8 -5 -1 -19 5 -33 13 -131 83 -251 150
-259 144 -6 -3 -19 -1 -28 5 -15 9 -14 10 7 5 23 -5 23 -4 7 7 -79 55 -136
102 -224 189 -56 54 -105 95 -108 89 -3 -6 0 -16 7 -23 7 -8 28 -30 46 -51 18
-20 37 -34 42 -31 6 3 7 -1 4 -9 -4 -11 0 -16 10 -16 9 0 16 -6 17 -12 0 -19
169 -146 254 -193 40 -22 112 -64 159 -92 47 -29 93 -53 100 -53 8 0 16 -4 18
-8 6 -14 98 -63 107 -57 5 3 13 0 17 -6 5 -8 3 -9 -6 -4 -9 5 -11 4 -6 -3 4
-7 12 -12 18 -12 6 0 26 -11 45 -26 18 -14 33 -21 33 -17 0 4 4 3 8 -3 10 -16
92 -66 92 -57 0 5 5 0 11 -10 5 -9 17 -17 25 -17 8 0 12 -4 9 -10 -4 -6 1 -7
11 -3 11 4 15 3 11 -4 -4 -6 16 -30 43 -53 l50 -42 65 53 c35 28 62 56 58 62
-3 6 -1 7 5 3 13 -7 172 91 172 106 0 5 5 6 10 3 6 -3 10 -1 10 4 0 6 3 10 8
9 4 -2 34 13 66 32 32 19 72 42 88 50 16 9 25 20 21 25 -4 4 -3 5 3 2 16 -9
106 42 98 55 -4 7 -2 8 4 4 13 -7 72 23 72 36 0 4 7 8 15 8 8 0 15 4 15 10 0
5 3 9 8 8 17 -5 52 14 46 24 -5 7 -1 9 9 5 12 -4 45 15 105 60 84 65 142 114
113 98 -9 -5 -12 -4 -7 3 4 7 13 12 19 12 18 0 109 95 100 104 -5 4 -1 6 7 4
9 -2 23 13 36 38 11 23 31 52 43 65 13 13 29 36 37 51 8 15 28 48 46 74 123
183 184 560 137 854 -6 36 -13 83 -15 105 -2 22 -11 72 -20 110 -109 493 -131
850 -63 1029 10 27 15 54 12 60 -3 6 -3 8 1 4 10 -9 58 80 51 93 -4 5 -37 9
-75 9 -96 0 -288 26 -438 60 -23 6 -51 10 -62 10 -11 0 -28 4 -38 9 -9 5 -55
22 -102 37 -47 15 -127 49 -178 75 -52 27 -99 46 -105 42 -7 -3 -9 -3 -5 1 9
11 -81 58 -94 50 -6 -4 -8 -2 -4 4 3 6 -3 13 -14 17 -11 3 -20 10 -20 14 0 5
-18 21 -41 35 -22 15 -73 56 -113 90 l-72 63 -30 -26z m849 -428 c-7 -2 -19
-2 -25 0 -7 3 -2 5 12 5 14 0 19 -2 13 -5z m494 -1085 c-3 -8 -6 -5 -6 6 -1
11 2 17 5 13 3 -3 4 -12 1 -19z m-24 -1163 c-3 -9 -8 -14 -10 -11 -3 3 -2 9 2
15 9 16 15 13 8 -4z"/>
<path d="M3105 4328 c-2 -7 -6 -31 -7 -53 -3 -36 -6 -40 -27 -37 -17 3 -21 0
-15 -10 6 -10 4 -11 -7 -2 -17 13 -42 12 -49 -1 -3 -6 16 -11 47 -13 l52 -3
-5 -32 c-3 -18 -13 -95 -22 -171 l-17 -140 -412 2 -411 2 -33 -102 c-18 -56
-33 -114 -33 -129 -1 -15 -4 -25 -7 -23 -10 6 -31 -75 -23 -88 4 -6 3 -8 -4
-4 -6 4 -14 -12 -21 -41 -17 -77 -90 -336 -116 -413 -40 -120 -74 -255 -65
-260 5 -3 1 -14 -10 -23 -41 -35 -18 -130 49 -197 63 -63 142 -90 261 -90 145
0 242 44 286 130 27 54 44 147 24 135 -9 -6 -11 -4 -6 4 9 14 -24 152 -34 146
-4 -2 -6 4 -6 13 0 54 -5 73 -16 66 -7 -4 -8 -3 -4 5 4 6 1 35 -8 64 -41 138
-60 203 -62 217 -3 17 -26 101 -57 205 -11 39 -21 79 -22 90 -4 47 -18 94 -26
89 -5 -3 -6 2 -3 10 3 8 -4 45 -15 84 -12 38 -21 72 -21 76 0 3 165 6 367 6
332 0 368 -2 385 -17 12 -11 22 -13 26 -7 4 5 26 18 49 28 23 10 49 27 58 36
14 15 14 18 0 30 -17 14 -21 55 -5 45 6 -4 9 -13 8 -22 -4 -20 32 -44 39 -26
2 7 10 10 16 7 7 -2 24 4 38 13 14 10 52 36 85 58 32 22 62 38 67 37 4 -1 7 2
7 8 0 6 9 6 26 0 16 -7 23 -7 19 0 -3 6 -1 10 4 10 6 0 11 -5 11 -11 0 -7 13
-10 34 -7 19 2 32 0 30 -4 -3 -4 2 -8 10 -8 15 0 32 18 23 26 -10 10 -187 13
-187 3 0 -5 -5 -7 -10 -4 -14 9 -42 -14 -33 -28 4 -6 1 -7 -6 -2 -8 4 -27 -5
-49 -22 -50 -40 -83 -57 -91 -46 -4 4 -13 58 -20 118 -16 141 -20 155 -40 155
-14 0 -14 2 -1 10 10 6 16 6 18 0 2 -6 15 -10 28 -10 17 0 23 4 18 13 -6 10
-4 10 7 0 7 -7 21 -13 31 -13 10 0 18 6 18 13 0 7 -18 13 -47 15 -26 2 -49 5
-51 7 -3 2 -7 24 -9 50 -5 43 -19 59 -28 33z m19 -73 c3 -8 1 -15 -4 -15 -6 0
-10 7 -10 15 0 8 2 15 4 15 2 0 6 -7 10 -15z m-4 -99 c0 -3 -4 -8 -10 -11 -5
-3 -10 -1 -10 4 0 6 5 11 10 11 6 0 10 -2 10 -4z m2 -85 c2 -17 1 -28 -4 -25
-8 5 -12 54 -4 54 2 0 6 -13 8 -29z m-25 -13 c-3 -7 -5 -2 -5 12 0 14 2 19 5
13 2 -7 2 -19 0 -25z m31 -53 c9 16 11 17 12 4 0 -17 -23 -32 -34 -22 -3 4 -6
16 -5 27 1 18 2 17 8 -4 7 -24 7 -24 19 -5z m-2 -120 c-23 -18 -36 -19 -36 -4
0 5 4 8 9 4 5 -3 12 -1 16 5 3 5 12 10 18 10 7 0 3 -7 -7 -15z m-56 -35 c-8
-5 -22 -9 -30 -9 -10 0 -8 3 5 9 27 12 43 12 25 0z m-823 -72 c-3 -8 -6 -5 -6
6 -1 11 2 17 5 13 3 -3 4 -12 1 -19z m-5 -70 c-16 -16 -18 -938 -2 -938 7 0
10 160 10 460 0 253 4 460 8 460 12 0 32 -47 32 -75 0 -13 5 -27 10 -30 6 -4
8 -10 6 -13 -5 -8 30 -148 64 -262 37 -122 79 -275 98 -355 34 -141 43 -166
53 -159 8 4 8 0 0 -13 -6 -11 -7 -24 -3 -28 4 -5 2 -5 -5 -1 -14 8 -560 9
-573 1 -5 -3 -6 5 -3 17 3 13 6 33 7 46 0 12 4 22 8 22 3 0 9 15 13 33 3 17
12 52 20 77 7 25 23 79 35 120 13 41 37 120 55 175 18 55 40 134 50 175 10 41
29 110 41 153 13 43 24 89 24 103 0 14 4 23 9 20 5 -3 14 1 21 9 7 8 17 15 23
15 7 0 7 -4 -1 -12z"/>
<path d="M3568 4028 c-8 -20 -1 -28 24 -28 26 0 25 -47 -2 -55 -11 -4 -17 -11
-14 -17 4 -7 2 -8 -4 -4 -7 4 -43 -2 -80 -14 -38 -11 -82 -20 -98 -21 -25 0
-26 -2 -9 -9 16 -7 17 -9 3 -9 -9 -1 -19 3 -22 8 -9 15 -113 12 -163 -5 -50
-17 -86 -41 -47 -32 19 5 21 2 17 -29 -5 -37 12 -244 27 -328 5 -27 12 -79 15
-115 7 -66 15 -127 38 -281 l13 -86 -33 -49 c-18 -27 -33 -58 -33 -69 0 -15
-3 -16 -9 -7 -6 11 -10 10 -16 -5 -5 -10 -8 -22 -7 -28 1 -5 -12 -10 -29 -11
-24 -1 -29 2 -22 15 4 9 9 230 10 491 l1 475 24 6 23 5 -25 7 c-17 4 -27 2
-33 -9 -4 -8 -12 -12 -18 -9 -5 4 -9 1 -9 -4 0 -6 -6 -11 -13 -11 -25 0 -67
-61 -67 -97 0 -19 4 -32 9 -29 4 3 7 -5 5 -17 -11 -83 -12 -110 -2 -96 8 11 8
9 3 -6 -4 -11 -8 -28 -10 -38 -7 -30 -16 -39 -29 -28 -7 6 -16 9 -19 6 -4 -3
-5 -2 -2 1 2 4 -4 23 -14 43 -31 61 -35 113 -12 158 11 22 27 45 35 52 9 8 16
20 16 28 0 8 4 12 9 9 10 -6 23 19 14 27 -8 9 -42 -26 -36 -36 3 -6 1 -7 -5
-3 -14 8 -54 -44 -47 -61 2 -8 1 -12 -4 -8 -14 8 -24 -52 -16 -102 7 -47 30
-95 72 -151 23 -30 24 -39 19 -105 -13 -154 -50 -402 -90 -602 -22 -110 -26
-121 -57 -147 -18 -15 -39 -28 -45 -28 -7 0 -33 -23 -58 -50 -50 -56 -86 -140
-86 -200 0 -36 25 -104 52 -142 10 -15 9 -24 -7 -55 -11 -20 -18 -42 -17 -47
2 -6 1 -8 -3 -4 -4 4 -27 -17 -52 -47 -24 -30 -53 -60 -64 -65 -11 -6 -17 -15
-14 -21 4 -5 3 -9 -2 -8 -17 3 -29 -2 -53 -21 -20 -16 -21 -19 -5 -14 11 4 17
4 13 -1 -4 -4 -15 -8 -25 -9 -21 -1 -155 -66 -164 -80 -4 -5 -12 -5 -18 -2 -6
4 -11 2 -11 -3 0 -6 -8 -11 -18 -11 -38 0 -62 -29 -62 -76 l0 -44 925 0 925 0
0 44 c0 24 -6 48 -12 54 -7 6 -46 22 -87 36 -73 26 -190 85 -223 114 -10 8
-18 12 -18 8 0 -4 -6 -1 -13 6 -8 7 -37 34 -65 60 -28 26 -57 60 -65 75 -7 16
-18 27 -24 26 -11 -2 -27 56 -18 65 7 8 117 -27 135 -43 8 -7 26 -16 40 -19
20 -6 22 -5 10 4 -13 10 -13 11 0 7 8 -2 14 -11 12 -21 -2 -9 2 -16 8 -16 5 0
10 5 10 11 0 6 7 3 16 -6 12 -11 30 -15 62 -13 38 3 46 6 49 26 6 41 -102 182
-128 166 -8 -4 -9 -3 -5 4 12 20 -170 92 -194 77 -6 -3 -10 -2 -10 3 0 5 -26
14 -57 18 l-56 9 -17 55 c-35 111 -65 264 -51 255 13 -7 62 72 130 211 39 80
72 230 54 243 -5 3 -9 28 -9 54 -2 64 -41 135 -128 231 -66 73 -168 152 -184
143 -4 -3 -8 7 -9 21 0 15 -7 78 -13 140 -7 62 -10 115 -7 118 7 8 666 6 678
-2 5 -3 6 2 3 11 -6 13 -33 15 -211 15 -113 -1 -208 1 -211 4 -3 3 5 6 17 6
12 0 19 4 16 10 -3 6 3 10 14 10 12 0 43 9 71 19 37 14 65 18 106 14 41 -4 55
-2 50 6 -4 6 -13 8 -19 5 -8 -5 -8 -3 1 7 13 14 17 49 5 49 -4 0 -17 -10 -29
-21 -27 -25 -55 -19 -49 10 4 24 -22 54 -41 47 -7 -3 -14 0 -17 7 -2 6 -6 5
-9 -5z m-325 -165 c-7 -2 -21 -2 -30 0 -10 3 -4 5 12 5 17 0 24 -2 18 -5z m80
0 c-7 -2 -19 -2 -25 0 -7 3 -2 5 12 5 14 0 19 -2 13 -5z m-65 -355 c7 -7 12
-9 12 -5 0 3 11 -5 25 -19 14 -14 30 -22 37 -18 6 4 8 3 4 -4 -3 -6 2 -17 11
-24 10 -7 36 -33 58 -58 22 -25 43 -44 47 -43 4 2 5 -3 2 -10 -2 -7 6 -25 20
-40 13 -14 22 -27 20 -30 -2 -2 1 -19 7 -38 14 -46 14 -189 -1 -236 -16 -52
-53 -146 -63 -158 -19 -25 -106 -165 -103 -165 2 0 -12 -16 -31 -35 -21 -21
-32 -39 -27 -47 4 -7 3 -10 -1 -5 -11 9 -126 -104 -118 -116 3 -6 1 -7 -4 -4
-6 4 -16 0 -22 -7 -9 -11 -9 -16 0 -21 6 -5 47 29 101 84 49 50 94 91 98 91 9
0 21 -41 25 -83 2 -15 11 -37 21 -49 11 -12 13 -18 7 -14 -7 4 -13 5 -13 3 0
-11 51 -150 72 -197 14 -30 31 -70 39 -87 8 -18 18 -33 22 -33 5 0 6 4 2 9 -3
5 -1 12 4 15 5 4 7 -7 4 -25 -3 -22 2 -39 22 -65 14 -19 31 -31 37 -28 7 4 8
2 4 -5 -10 -16 122 -144 140 -137 8 3 13 0 11 -6 -2 -10 105 -71 147 -83 13
-4 16 -9 9 -16 -8 -8 -593 -13 -718 -6 l-30 2 -3 310 c-1 176 -6 313 -12 319
-11 11 -43 -12 -35 -24 3 -5 0 -12 -6 -16 -8 -4 -9 -3 -5 4 11 18 -2 14 -34
-10 -16 -11 -26 -26 -23 -31 3 -6 1 -7 -5 -3 -6 3 -67 -30 -136 -75 -70 -45
-132 -79 -139 -76 -25 9 -51 80 -50 133 1 92 63 187 156 235 21 11 35 24 31
30 -3 6 0 9 7 8 8 -2 25 3 39 11 14 8 39 21 55 30 17 9 29 21 28 27 -2 7 3 10
10 7 25 -9 224 217 210 239 -3 6 -1 7 5 3 7 -4 13 -2 13 3 1 6 2 15 3 20 0 5
5 13 10 18 5 5 6 2 2 -7 -4 -8 1 -4 12 10 11 13 19 27 16 31 -2 4 2 9 10 12
17 7 46 90 46 134 0 46 -25 102 -63 141 -17 18 -32 38 -32 45 -3 76 -19 177
-29 177 -6 0 -4 5 4 10 19 13 24 12 38 -2z m49 -333 c5 -16 6 -48 2 -70 -4
-22 -5 -43 -2 -47 2 -5 -2 -15 -11 -23 -18 -18 -33 -20 -18 -2 13 15 -14 188
-31 199 -8 5 -4 8 11 8 12 0 22 6 23 13 1 6 5 -1 9 -18 5 -16 12 -43 17 -60z
m-333 -520 c-10 -8 -23 -15 -28 -15 -6 0 -1 7 10 15 10 8 23 15 28 15 6 0 1
-7 -10 -15z m-44 -25 c0 -5 -5 -10 -11 -10 -5 0 -7 5 -4 10 3 6 8 10 11 10 2
0 4 -4 4 -10z m541 -300 c15 0 66 -11 113 -25 47 -14 93 -25 102 -25 9 0 12
-5 8 -11 -4 -7 -2 -10 6 -7 22 7 150 -124 150 -155 0 -2 -12 -7 -27 -10 -25
-5 -118 27 -198 67 -41 20 -122 28 -128 13 -2 -7 -4 0 -4 14 0 15 -17 57 -37
95 -19 37 -30 62 -24 56 7 -7 24 -12 39 -12z m459 -524 c0 -3 -4 -8 -10 -11
-5 -3 -10 -1 -10 4 0 6 5 11 10 11 6 0 10 -2 10 -4z"/>
<path d="M3414 3986 c-8 -21 3 -36 27 -36 15 0 20 6 17 22 -4 27 -35 37 -44
14z"/>
<path d="M3892 3863 c-6 -2 -9 -9 -6 -15 4 -5 2 -20 -4 -31 -6 -12 -21 -56
-32 -97 -18 -64 -67 -224 -100 -323 -5 -16 -6 -35 -3 -43 3 -8 0 -14 -5 -14
-6 0 -16 -26 -22 -57 -6 -32 -18 -79 -26 -105 -9 -26 -13 -52 -9 -58 3 -5 2
-10 -3 -10 -5 0 -15 -21 -22 -47 -6 -27 -16 -57 -20 -68 -5 -11 -21 -59 -35
-108 -14 -48 -28 -94 -31 -102 -5 -11 -2 -13 10 -9 9 3 13 10 10 15 -3 5 -1 9
5 9 5 0 13 15 16 33 4 17 17 64 30 102 54 168 85 272 87 295 2 14 7 28 12 31
4 4 9 19 11 35 1 16 4 36 7 44 6 15 38 123 79 265 22 75 40 105 64 104 6 0 5
-3 -2 -5 -16 -7 -19 -934 -3 -934 5 0 9 3 9 8 -1 4 -1 208 0 455 1 388 3 447
16 447 8 0 17 -12 21 -27 18 -79 81 -318 91 -343 3 -8 7 -19 7 -25 3 -24 22
-94 76 -285 32 -113 59 -214 60 -225 3 -31 0 -41 -8 -28 -6 10 -81 13 -305 14
-164 1 -300 -1 -304 -4 -3 -3 0 -29 7 -58 16 -67 75 -133 150 -167 43 -20 76
-26 151 -30 195 -9 304 59 338 209 8 34 6 55 -9 99 -20 62 -144 514 -155 570
-17 79 -119 426 -128 431 -5 4 -7 14 -4 23 4 9 2 16 -4 16 -6 0 -7 5 -4 10 7
11 6 11 -13 3z m25 -85 c-3 -8 -6 -5 -6 6 -1 11 2 17 5 13 3 -3 4 -12 1 -19z
m-23 -57 c-6 -6 -24 19 -24 34 1 6 7 1 15 -9 8 -11 12 -22 9 -25z m183 -523
c-3 -8 -6 -5 -6 6 -1 11 2 17 5 13 3 -3 4 -12 1 -19z m-467 -452 c0 -2 -7 -6
-15 -10 -8 -3 -15 -1 -15 4 0 6 7 10 15 10 8 0 15 -2 15 -4z"/>
<path d="M1105 3082 c-5 -4 -10 -25 -10 -47 0 -22 -3 -65 -7 -95 -4 -30 -10
-100 -13 -155 -3 -55 -8 -107 -11 -117 -6 -22 6 -69 16 -63 5 3 12 0 16 -6 5
-8 3 -9 -6 -4 -9 5 -11 1 -6 -16 3 -13 3 -18 0 -11 -3 6 -10 10 -15 7 -5 -4
-6 2 -2 11 5 14 3 16 -11 11 -9 -4 -15 -3 -12 2 7 11 -18 33 -27 24 -4 -3 -7
-1 -7 5 0 5 -24 16 -52 22 -82 19 -118 22 -118 10 0 -6 5 -8 12 -4 6 4 8 3 4
-4 -9 -14 14 -63 27 -55 5 3 7 0 5 -8 -6 -15 70 -170 102 -207 11 -13 24 -21
29 -18 5 3 8 -2 7 -11 -1 -12 24 -32 74 -60 74 -42 98 -48 92 -23 -3 11 0 11
12 1 14 -11 13 -6 -1 40 -10 33 -16 89 -17 144 0 95 12 140 62 244 26 55 28
61 31 81 0 6 6 10 12 10 8 0 8 -4 0 -14 -10 -11 -8 -16 9 -21 11 -3 18 -10 15
-15 -3 -4 2 -25 11 -46 12 -28 15 -64 12 -146 -1 -59 -6 -108 -9 -108 -3 0
-11 -19 -18 -42 -7 -24 -24 -63 -38 -87 -23 -39 -24 -45 -9 -53 9 -5 16 -14
16 -21 0 -8 -3 -7 -9 2 -5 7 -14 10 -20 7 -6 -4 -11 -3 -11 3 0 5 -9 9 -20 8
-12 -1 -18 -7 -16 -14 3 -7 -1 -10 -8 -7 -8 3 -16 -4 -19 -18 l-6 -22 -30 28
c-16 15 -34 25 -40 21 -7 -3 -10 -1 -9 5 2 6 -8 19 -22 28 -20 14 -23 14 -16
2 4 -8 1 -7 -8 4 -8 10 -20 15 -27 10 -7 -4 -10 -3 -6 3 7 12 -37 23 -89 23
-39 0 -42 -10 -16 -48 10 -15 38 -66 60 -113 40 -81 82 -132 131 -158 12 -7
26 -9 31 -6 6 4 7 -1 3 -11 -5 -13 -2 -15 15 -9 13 4 22 2 22 -4 0 -6 9 -11
19 -11 11 0 23 -4 26 -10 10 -16 28 -11 21 6 -5 12 -1 14 17 7 12 -4 35 -7 50
-7 16 1 24 -2 17 -6 -15 -9 -2 -40 15 -34 8 3 18 -5 25 -18 10 -21 10 -21 -3
-5 -18 21 -31 22 -23 2 5 -14 4 -14 -16 0 -13 8 -31 15 -41 15 -11 0 -15 5
-11 11 4 7 0 9 -13 5 -12 -4 -25 -1 -32 8 -29 35 -211 36 -211 1 0 -8 8 -20
18 -27 18 -13 62 -63 121 -137 21 -26 39 -40 48 -37 8 3 11 2 8 -4 -3 -5 9
-17 27 -26 29 -15 64 -43 56 -45 -2 -1 -27 -2 -56 -4 -29 -1 -55 -4 -58 -7
-10 -10 9 -39 23 -34 8 3 11 1 8 -4 -9 -14 57 -81 73 -75 7 3 10 0 7 -6 -9
-14 96 -108 114 -101 9 3 12 1 7 -6 -15 -25 39 -36 176 -37 76 0 138 -3 138
-7 0 -5 6 -8 13 -8 6 0 21 -14 32 -30 11 -17 26 -28 33 -25 7 2 12 -3 12 -13
0 -10 5 -23 12 -30 21 -21 -22 -14 -93 13 -105 42 -218 67 -302 68 -87 1 -108
-10 -77 -38 18 -17 23 -17 32 -5 8 12 9 12 4 -2 -7 -24 125 -112 154 -103 14
5 18 3 15 -8 -6 -14 51 -37 94 -37 34 0 24 -27 -15 -40 -34 -12 -35 -13 -18
-31 9 -10 23 -19 31 -19 7 0 13 -4 13 -10 0 -5 5 -10 10 -10 7 0 7 6 0 19 -14
28 -13 54 3 48 7 -3 38 0 68 5 70 13 171 -4 259 -44 57 -25 66 -27 76 -14 6 9
14 13 17 9 4 -3 2 -12 -4 -20 -14 -17 2 -17 20 -1 11 11 11 9 2 -10 -10 -18
-9 -22 4 -22 45 0 -27 101 -82 116 -20 5 -23 13 -23 51 0 25 -7 72 -15 104
-19 72 -9 106 19 64 9 -14 21 -23 27 -20 5 4 8 3 7 -2 -4 -11 48 -113 55 -107
2 3 7 -2 11 -11 3 -9 2 -14 -3 -11 -4 3 2 -24 15 -60 15 -41 22 -75 18 -91 -4
-14 -7 -35 -8 -46 -1 -28 -30 -35 -153 -36 -115 -1 -167 13 -246 67 -52 37
-56 38 -53 16 3 -20 108 -78 178 -99 28 -8 78 -15 109 -15 72 0 209 20 209 30
0 8 67 -4 77 -14 3 -3 3 -12 -1 -21 -4 -11 -12 -14 -27 -10 -22 7 -142 -12
-172 -27 -10 -5 -28 -11 -39 -13 -46 -9 -88 -27 -83 -36 4 -5 -1 -6 -9 -3 -10
4 -16 1 -16 -9 0 -20 70 -68 158 -110 63 -30 73 -32 182 -32 113 0 116 1 193
38 43 21 75 43 71 48 -8 13 53 -12 102 -43 78 -50 82 -51 101 -28 10 11 22 20
27 20 5 0 0 -11 -12 -23 l-22 -24 77 -37 c128 -62 176 -92 179 -109 1 -10 -2
-15 -7 -12 -13 9 -147 -65 -242 -134 -106 -76 -147 -125 -147 -176 0 -21 4
-34 10 -30 5 3 7 0 4 -9 -5 -13 26 -50 44 -52 4 0 15 -4 25 -8 24 -11 48 0 41
19 -3 8 -1 15 6 15 6 0 8 5 5 10 -3 6 0 10 7 10 8 0 40 30 73 68 38 43 95 91
157 132 54 36 98 68 98 72 0 5 3 7 8 6 12 -2 42 14 38 21 -3 4 4 7 15 7 10 0
19 -4 19 -8 0 -5 12 -14 28 -21 15 -6 32 -15 37 -19 86 -64 108 -78 117 -72 7
4 8 3 4 -4 -3 -6 3 -16 15 -23 28 -15 140 -125 164 -162 14 -22 20 -25 27 -15
6 9 7 6 3 -10 -8 -27 17 -41 40 -22 8 7 15 9 15 6 0 -4 9 -2 21 4 27 15 52 76
44 109 -7 29 -64 87 -80 82 -5 -1 -7 1 -2 5 9 9 -22 44 -40 44 -7 0 -13 4 -13
9 0 13 -90 71 -202 130 -87 47 -108 52 -108 29 0 -13 90 -49 102 -41 6 3 8 2
5 -3 -3 -6 18 -23 46 -38 97 -53 146 -89 234 -172 25 -23 33 -39 33 -65 0 -72
-60 -106 -92 -51 -56 94 -381 345 -426 327 -8 -3 -66 -40 -129 -82 -115 -77
-217 -169 -263 -237 -33 -48 -67 -47 -93 5 -20 41 -14 68 25 109 12 13 22 28
20 32 -1 5 2 7 7 6 5 -2 38 19 74 45 36 26 115 73 174 104 59 30 109 59 111
63 4 10 -37 34 -45 26 -3 -2 -13 3 -24 12 -10 10 -47 33 -81 51 -35 18 -70 40
-79 47 -8 8 -24 14 -34 14 -24 0 -17 6 17 14 20 5 26 3 22 -7 -2 -7 3 -13 13
-14 20 -1 37 -6 68 -17 22 -9 27 -11 144 -61 l85 -36 40 18 c23 9 43 20 46 23
3 3 12 6 20 8 46 9 100 36 100 51 0 13 2 13 9 2 7 -11 14 -10 42 3 19 9 48 20
64 25 17 5 39 12 50 16 20 7 20 6 1 -9 -11 -9 -28 -16 -37 -16 -10 0 -19 -4
-21 -8 -1 -4 -41 -30 -88 -56 -47 -27 -87 -53 -88 -58 -2 -4 -9 -5 -15 -2 -9
5 -9 4 0 -6 9 -10 23 -6 70 20 32 18 61 37 65 43 3 6 12 12 20 13 28 5 108 44
108 53 0 6 6 8 13 5 7 -2 29 6 48 18 55 38 109 68 121 68 5 0 23 -9 40 -21 16
-12 32 -19 35 -16 3 4 12 0 20 -8 29 -30 121 -48 217 -43 76 4 102 11 156 37
160 77 205 127 113 124 -7 -1 -11 3 -8 7 7 11 -83 43 -106 37 -10 -3 -17 -2
-14 3 5 9 -93 30 -141 30 -22 0 -33 5 -36 18 -6 24 35 26 136 7 144 -27 256
-16 357 37 21 11 36 24 33 29 -3 5 1 6 9 4 7 -3 25 6 40 19 15 14 31 26 35 26
4 0 7 4 7 9 0 5 4 13 9 18 5 5 6 2 1 -6 -5 -9 -3 -12 6 -9 23 8 16 32 -11 38
-14 3 -25 12 -25 20 0 8 11 17 25 18 73 10 300 145 300 178 0 20 -92 25 -181
9 -118 -20 -279 -77 -279 -97 0 -5 -7 -2 -16 7 -12 12 -19 13 -24 5 -5 -8 -10
-9 -14 -2 -3 6 2 13 11 16 10 3 41 30 70 59 l52 52 131 -2 c92 -1 128 1 124 9
-5 7 -2 8 5 4 7 -5 19 0 27 10 9 11 12 13 9 6 -6 -11 -3 -12 13 -3 25 14 162
139 161 147 0 4 5 10 11 14 7 4 9 13 6 19 -5 8 -12 7 -22 -4 -9 -8 -13 -19 -9
-24 3 -5 0 -13 -6 -17 -8 -4 -9 -3 -5 4 14 24 -3 11 -55 -41 -75 -74 -114 -94
-190 -98 -35 -2 -70 -8 -78 -13 -11 -8 -13 -8 -7 2 10 16 -55 17 -72 0 -9 -9
-12 -8 -12 6 0 9 5 14 10 11 6 -3 10 -2 10 3 0 12 77 92 89 92 6 0 14 6 18 13
4 7 41 29 81 48 39 20 70 38 68 40 -3 3 3 5 12 6 9 1 52 5 95 9 74 7 77 6 77
-15 0 -11 4 -21 8 -21 11 0 58 50 49 51 -9 2 -25 6 -34 9 -14 4 -28 7 -44 8
-9 1 -19 11 -22 21 -3 15 -1 18 11 14 11 -5 13 -3 7 7 -6 10 -4 12 8 7 11 -4
17 -1 17 8 0 19 2 19 -49 -5 -51 -25 -173 -42 -183 -26 -10 15 -10 34 1 40 5
4 7 -4 5 -16 -2 -13 -1 -16 2 -8 4 8 12 21 18 29 6 8 11 27 11 43 0 25 -1 27
-13 11 -7 -10 -11 -22 -8 -28 2 -6 -5 -12 -15 -12 -10 -1 -19 1 -20 5 0 4 -2
16 -4 27 -29 154 -26 254 10 309 14 22 12 36 -7 36 -5 0 -7 -4 -4 -9 3 -5 0
-11 -8 -14 -16 -6 -41 -100 -32 -123 3 -8 2 -13 -2 -10 -4 2 -21 -2 -38 -10
-38 -18 -88 -100 -110 -180 -11 -42 -23 -63 -38 -70 -11 -5 -20 -16 -18 -23 1
-7 -1 -10 -6 -7 -15 9 -80 -75 -74 -96 1 -5 -2 -8 -7 -8 -18 0 -81 -214 -81
-275 0 -17 -7 -40 -15 -51 -8 -12 -11 -25 -7 -29 4 -5 1 -5 -6 -1 -11 7 -49
-21 -45 -33 1 -3 0 -7 -1 -8 -9 -10 -3 77 9 132 16 69 15 77 -11 81 -11 2 -14
-3 -11 -17 3 -11 -1 -43 -10 -71 -8 -28 -13 -74 -11 -103 3 -45 1 -51 -17 -53
-11 0 -29 -12 -40 -25 -11 -13 -33 -32 -48 -42 -19 -12 -27 -24 -24 -36 3 -12
0 -16 -9 -12 -9 3 -14 -2 -14 -16 0 -26 3 -26 34 1 13 13 60 38 104 57 43 19
79 40 79 48 0 7 -4 13 -9 13 -4 0 -8 -4 -8 -8 0 -4 -13 -8 -29 -7 l-29 0 22
21 c11 11 23 19 24 18 2 -2 19 6 38 17 43 24 42 24 36 -6 -2 -14 -11 -25 -18
-25 -8 0 -14 -7 -14 -16 0 -10 6 -14 18 -10 9 3 44 8 77 12 33 3 66 10 73 16
9 8 12 6 12 -5 0 -10 15 -17 45 -21 25 -4 45 -11 45 -15 0 -10 -50 -48 -101
-78 -75 -43 -133 -55 -252 -52 -62 2 -124 7 -138 11 -26 9 -34 36 -14 50 5 4
6 10 2 14 -4 4 -16 -1 -27 -11 -16 -14 -17 -20 -8 -27 7 -4 8 -8 2 -8 -5 0
-19 6 -29 14 -17 12 -17 18 -6 77 7 35 19 79 26 96 16 39 4 51 -29 30 -22 -15
-27 -40 -14 -63 4 -5 3 -16 -3 -24 -5 -8 -9 -45 -9 -83 0 -63 -2 -68 -25 -77
-40 -15 -125 -77 -117 -85 4 -5 1 -5 -5 -1 -25 14 -4 105 34 148 8 9 12 22 7
29 -4 7 -3 10 4 5 11 -7 38 32 34 47 -1 5 2 6 7 3 5 -3 21 8 35 25 27 31 33
49 17 49 -14 0 -32 -26 -23 -35 4 -5 2 -5 -5 -1 -28 15 -164 -202 -149 -239 3
-8 1 -15 -4 -15 -6 0 -10 -5 -10 -11 0 -5 4 -8 10 -4 5 3 18 0 28 -6 16 -10
31 -9 76 5 84 27 194 19 312 -20 53 -18 98 -35 102 -39 3 -3 -1 -3 -11 1 -12
4 -17 1 -17 -12 0 -9 -3 -15 -6 -11 -3 3 -27 -8 -52 -24 -25 -16 -53 -29 -62
-29 -9 0 -20 -3 -24 -7 -3 -4 -14 -8 -24 -9 -9 -2 -18 -8 -20 -13 -2 -6 -8
-11 -13 -11 -6 0 -8 4 -5 9 4 5 -3 7 -15 4 -16 -4 -17 -8 -7 -14 9 -6 9 -9 1
-9 -6 0 -14 4 -17 8 -3 5 -44 12 -90 15 -61 4 -100 13 -138 31 -28 14 -55 23
-58 21 -4 -2 -6 10 -5 27 1 17 9 35 18 40 24 13 21 27 -3 21 -11 -3 -20 -10
-20 -16 0 -6 -2 -8 -4 -6 -4 4 10 89 20 123 4 12 2 16 -5 12 -7 -5 -8 -1 -4
10 4 12 3 15 -5 10 -11 -7 -17 6 -13 27 1 5 -4 7 -11 4 -7 -2 -12 -10 -11 -16
2 -6 -3 -11 -10 -11 -19 0 -108 -81 -101 -92 3 -4 0 -7 -6 -6 -7 2 -17 -6 -23
-17 -7 -11 -15 -22 -19 -25 -3 -3 -10 -18 -13 -33 -4 -15 -11 -27 -16 -27 -5
0 -9 -9 -9 -20 0 -19 -35 -58 -46 -52 -2 1 -12 -4 -21 -13 -8 -9 -22 -14 -30
-11 -8 3 -67 -17 -131 -45 -130 -57 -169 -71 -174 -60 -5 11 -101 53 -125 55
-11 0 -19 4 -17 7 6 10 -26 20 -38 12 -7 -3 -8 -1 -4 5 7 11 -7 16 -41 15 -7
-1 -10 4 -6 10 4 6 -2 8 -15 5 -12 -4 -20 -2 -17 2 3 5 -11 12 -31 16 -31 6
-39 13 -56 53 -30 72 -79 143 -94 137 -8 -3 -11 0 -8 8 3 7 -19 32 -48 56 -28
25 -48 38 -44 30 4 -8 -1 -4 -12 9 -19 23 -20 23 -31 5 -11 -18 -11 -17 -6 3
5 18 3 22 -10 17 -10 -4 -14 -13 -10 -23 37 -91 45 -181 17 -187 -7 -1 -8 0
-2 3 8 3 5 13 -7 27 -11 11 -27 46 -36 78 -25 82 -105 198 -170 247 -62 47
-67 49 -67 21 0 -11 6 -20 14 -20 8 0 22 -7 30 -16 9 -8 21 -12 27 -8 7 4 9 3
6 -3 -6 -10 29 -50 42 -46 3 1 8 -1 11 -4 3 -4 -1 -3 -7 1 -21 12 -15 -1 23
-51 35 -45 77 -126 78 -148 1 -5 -13 -10 -30 -10 -18 0 -30 5 -27 11 5 13 -45
37 -59 28 -7 -4 -8 -2 -4 4 8 14 -30 36 -50 28 -11 -4 -12 -2 -4 14 20 38 1
178 -26 187 -6 2 -5 -23 5 -72 12 -59 13 -77 3 -87 -17 -17 -43 0 -53 33 -4
13 -15 53 -24 89 -10 36 -32 92 -49 125 -34 68 -152 193 -168 177 -12 -12 11
-104 25 -95 5 3 7 1 3 -5 -3 -6 0 -37 8 -70 17 -73 9 -90 -26 -62 -30 23 -43
26 -32 8 5 -10 4 -10 -6 -1 -7 6 -18 9 -26 6 -7 -2 -21 0 -31 7 -16 10 -16 10
3 5 40 -10 52 2 44 43 -5 20 -16 78 -26 127 -18 93 -69 219 -85 210 -5 -4 -6
2 -2 11 4 12 3 15 -5 10 -7 -4 -12 -1 -12 7 0 21 -57 70 -74 64 -9 -4 -15 -3
-14 1 4 12 -25 123 -34 128 -4 3 -8 14 -8 25 0 10 -4 19 -9 19 -20 0 -20 -19
-2 -61 23 -52 37 -131 46 -256 6 -88 6 -92 -14 -90 -13 1 -24 12 -30 29 -6 15
-15 28 -22 28 -7 0 -9 3 -6 6 12 13 -33 63 -51 58 -10 -4 -13 -2 -7 3 6 4 12
74 14 158 2 83 5 152 8 155 2 3 12 -6 22 -18 15 -21 19 -22 30 -9 8 10 9 17 1
22 -5 3 -10 0 -11 -7 -1 -7 -4 -2 -8 12 -4 15 -20 31 -38 40 -21 10 -33 22
-33 36 0 36 -31 114 -42 107 -7 -3 -8 -1 -4 6 10 15 -13 43 -27 34 -6 -4 -8 0
-4 9 6 18 -25 52 -38 41 -4 -5 -5 3 -1 17 5 14 10 51 13 83 4 44 2 57 -8 57
-12 0 -12 2 -1 9 11 7 11 14 -1 44 -9 19 -24 44 -34 54 -16 16 -19 34 -18 123
0 89 -4 113 -24 157 -33 75 -48 84 -77 50 -13 -15 -27 -27 -33 -27 -5 0 -12
-8 -14 -17 -2 -10 -2 -7 0 7 19 104 10 187 -26 227 -9 10 -17 24 -19 31 -2 11
-52 92 -56 92 0 0 -5 -4 -11 -8z m35 -46 c0 -3 -4 -8 -10 -11 -5 -3 -10 -1
-10 4 0 6 5 11 10 11 6 0 10 -2 10 -4z m10 -38 c0 -6 7 -19 15 -28 49 -55 48
-259 -3 -363 -16 -31 -24 -57 -18 -56 24 3 36 -1 36 -12 0 -8 -4 -8 -14 0 -11
9 -16 9 -22 0 -19 -32 -59 135 -49 212 2 18 10 85 16 147 9 82 15 112 25 112
8 0 14 -5 14 -12z m-250 -348 c0 -5 -8 -10 -17 -10 -15 0 -16 2 -3 10 19 12
20 12 20 0z m320 6 c0 -3 -4 -8 -10 -11 -5 -3 -10 -1 -10 4 0 6 5 11 10 11 6
0 10 -2 10 -4z m-252 -31 c17 -4 32 -11 32 -17 0 -6 7 -7 16 -4 8 3 12 2 9 -4
-3 -6 -3 -10 2 -10 21 0 69 -82 99 -166 18 -52 38 -103 44 -114 10 -18 8 -20
-24 -18 -19 2 -34 8 -33 13 1 6 -6 9 -15 9 -10 -1 -15 3 -12 8 3 5 -2 8 -11 6
-10 -2 -22 6 -29 17 -6 11 -22 34 -36 50 -14 17 -36 54 -49 82 -13 29 -29 49
-34 46 -6 -3 -7 -1 -3 5 11 18 -26 91 -43 85 -11 -3 -10 0 3 11 11 9 27 14 35
12 9 -3 31 -7 49 -11z m196 -127 c9 -36 7 -39 -14 -26 -23 15 -27 48 -6 48 7
0 16 -10 20 -22z m-220 -4 c3 -8 2 -12 -4 -9 -6 3 -10 10 -10 16 0 14 7 11 14
-7z m421 -54 c-3 -6 2 -22 13 -38 26 -37 32 -75 21 -150 -7 -49 -6 -69 3 -81
11 -14 11 -14 -3 -4 -13 11 -18 5 -32 -41 -9 -29 -17 -59 -17 -67 0 -8 -7 -27
-15 -43 -13 -24 -13 -31 -3 -38 8 -6 4 -7 -12 -4 -14 3 -51 7 -83 10 -31 4
-75 13 -97 22 -58 24 -131 110 -171 204 -22 50 -37 74 -42 67 -6 -8 -7 -7 -4
3 3 14 67 23 67 10 0 -11 70 -31 81 -24 7 4 10 1 7 -7 -3 -8 13 -27 36 -45 23
-17 61 -57 86 -88 33 -41 49 -54 63 -50 11 3 16 1 15 -6 -2 -7 3 -15 10 -17
16 -6 15 13 -5 69 l-17 47 42 111 c23 61 42 121 42 134 0 12 3 26 7 29 10 10
15 8 8 -3z m-55 -120 c0 -5 -5 -10 -11 -10 -5 0 -7 5 -4 10 3 6 8 10 11 10 2
0 4 -4 4 -10z m-135 -50 c3 -6 -1 -7 -9 -4 -18 7 -21 14 -7 14 6 0 13 -4 16
-10z m70 -44 c19 8 27 -10 16 -38 -10 -23 -10 -23 -10 4 -1 20 -5 26 -16 22
-10 -4 -15 0 -14 12 0 11 3 14 5 7 3 -7 11 -10 19 -7z m-8 -68 c-3 -7 -5 -2
-5 12 0 14 2 19 5 13 2 -7 2 -19 0 -25z m-22 12 c3 -6 -1 -7 -9 -4 -18 7 -21
14 -7 14 6 0 13 -4 16 -10z m209 -27 c-11 -12 -18 -13 -27 -4 -8 8 -7 11 6 11
9 0 17 5 17 11 0 5 5 7 10 4 6 -4 4 -12 -6 -22z m-181 -23 c3 -11 1 -18 -4
-14 -5 3 -9 12 -9 20 0 20 7 17 13 -6z m220 -19 c49 -74 57 -142 33 -271 -9
-47 -16 -86 -16 -87 0 -2 -6 -3 -14 -3 -8 0 -18 10 -21 21 -6 17 -9 19 -17 8
-7 -10 -8 -8 -5 8 3 13 1 26 -5 29 -5 3 -14 18 -20 32 -9 25 -11 25 -17 8 -7
-17 -8 -18 -14 -3 -3 9 -2 17 2 17 18 0 21 33 6 50 -12 14 -13 20 -4 26 7 4
10 3 5 -4 -3 -6 -2 -13 3 -17 10 -6 19 30 25 98 2 21 6 40 10 44 3 3 6 21 6
38 0 26 6 45 15 45 1 0 14 -17 28 -39z m-190 9 c3 -11 1 -20 -4 -20 -5 0 -9 9
-9 20 0 11 2 20 4 20 2 0 6 -9 9 -20z m120 -24 c4 -9 0 -13 -11 -11 -9 2 -19
4 -22 4 -4 1 21 20 26 21 1 0 4 -6 7 -14z m-339 -32 c3 -8 2 -12 -4 -9 -6 3
-10 10 -10 16 0 14 7 11 14 -7z m336 -20 c0 -8 -4 -12 -10 -9 -5 3 -10 10 -10
16 0 5 5 9 10 9 6 0 10 -7 10 -16z m-20 -44 c0 -5 -4 -10 -10 -10 -5 0 -10 5
-10 10 0 6 5 10 10 10 6 0 10 -4 10 -10z m15 -30 c-3 -5 -13 -6 -22 -3 -11 4
-14 3 -9 -5 4 -7 2 -12 -3 -12 -12 0 -14 13 -4 23 10 11 45 8 38 -3z m-322
-32 c12 10 90 22 81 13 -5 -5 62 -25 129 -38 15 -3 27 -10 27 -15 0 -5 -6 -6
-12 -3 -12 6 5 -10 42 -38 8 -7 33 -32 55 -57 22 -25 43 -44 48 -42 5 1 5 -2
2 -8 -4 -6 0 -19 7 -28 32 -37 30 -40 -20 -36 -85 8 -142 26 -191 60 -27 18
-52 30 -57 26 -4 -4 -5 -2 -1 3 7 13 -61 101 -75 97 -5 -1 -7 2 -3 8 3 5 1 10
-4 10 -6 0 -11 6 -11 14 0 7 -9 16 -20 19 -12 3 -20 13 -19 24 1 17 2 17 6 0
3 -12 8 -15 16 -9z m508 5 c13 -17 13 -17 -6 -3 -11 8 -22 16 -24 17 -2 2 0 3
6 3 6 0 17 -8 24 -17z m3093 9 c-15 -10 -19 -288 -4 -297 8 -5 7 -14 -5 -31
-9 -14 -13 -29 -10 -34 3 -5 -1 -7 -9 -4 -16 6 -36 -24 -29 -44 3 -8 -4 -16
-17 -19 -11 -3 -19 -11 -17 -17 3 -7 -6 -13 -20 -14 l-25 -2 3 118 c2 64 6
119 9 122 3 3 14 32 24 64 21 69 64 139 79 129 6 -4 8 0 4 9 -6 18 0 28 17 28
8 0 8 -2 0 -8z m-3119 -39 c0 -15 -7 -28 -15 -30 -13 -4 -13 -3 0 6 13 10 13
12 0 21 -13 9 -13 11 0 20 8 5 15 10 15 10 1 0 1 -12 0 -27z m3145 -38 c0 -5
-5 -3 -10 5 -5 8 -10 20 -10 25 0 6 5 3 10 -5 5 -8 10 -19 10 -25z m10 -137
c0 -40 3 -49 15 -44 8 3 15 1 15 -3 0 -17 -24 -18 -42 -2 -14 12 -18 30 -18
86 0 68 1 69 15 41 8 -15 15 -51 15 -78z m-3285 72 c3 -5 1 -10 -4 -10 -6 0
-11 5 -11 10 0 6 2 10 4 10 3 0 8 -4 11 -10z m127 -59 c2 -44 0 -57 -10 -54
-8 4 -10 -1 -6 -13 5 -15 2 -14 -13 4 -17 21 -18 30 -10 77 13 71 34 63 39
-14z m175 -65 c-5 -14 18 -31 36 -27 5 1 6 -3 2 -9 -3 -5 -2 -10 3 -10 5 0 12
-9 15 -21 4 -13 10 -18 18 -13 8 4 10 3 5 -4 -8 -13 27 -96 36 -86 4 3 4 -4 1
-17 -4 -14 -2 -20 4 -16 6 4 8 -4 5 -20 -4 -19 -2 -24 8 -18 9 5 11 4 6 -3 -8
-14 12 -132 26 -149 6 -8 6 -18 -2 -30 -10 -16 -10 -15 -5 5 5 15 2 22 -8 22
-8 0 -28 16 -44 36 -44 56 -77 90 -95 100 -14 8 -17 29 -18 134 -2 143 -2 140
6 140 3 0 4 -6 1 -14z m2787 -13 c-5 -10 -10 -66 -10 -125 -2 -107 -2 -107
-33 -133 -17 -15 -31 -33 -31 -41 0 -9 -4 -13 -9 -9 -5 3 -12 -3 -15 -13 -4
-10 -18 -29 -31 -42 -39 -36 -47 -16 -30 65 9 39 18 84 22 100 4 17 19 52 35
78 16 27 25 54 22 60 -4 7 -4 9 0 6 8 -8 73 53 68 64 -2 4 2 7 8 7 8 0 9 -6 4
-17z m-3094 0 c0 -5 -5 -15 -10 -23 -8 -12 -10 -11 -10 8 0 12 5 22 10 22 6 0
10 -3 10 -7z m-63 -9 c-3 -3 -12 -4 -19 -1 -8 3 -5 6 6 6 11 1 17 -2 13 -5z
m166 -25 c9 -10 17 -25 17 -34 0 -14 -3 -14 -27 -2 -16 8 -34 12 -42 9 -8 -3
-11 0 -7 7 5 7 -1 11 -13 11 -19 0 -28 19 -16 32 10 10 71 -5 88 -23z m3273 3
c-3 -6 -20 -14 -37 -17 -20 -5 -27 -10 -19 -15 14 -9 -25 -18 -53 -12 -15 3
-13 8 13 32 30 28 77 42 94 29 4 -4 5 -12 2 -17z m81 22 c-3 -3 -12 -4 -19 -1
-8 3 -5 6 6 6 11 1 17 -2 13 -5z m-3488 -40 c36 -9 73 -23 82 -30 9 -8 23 -12
32 -9 8 4 18 1 23 -6 5 -8 3 -10 -7 -5 -8 4 -5 1 5 -8 10 -8 23 -13 27 -10 5
3 17 0 26 -6 16 -10 16 -11 -2 -6 -19 6 -19 6 -1 -9 10 -8 23 -12 29 -8 6 3 7
1 4 -4 -4 -6 18 -34 48 -62 30 -29 55 -55 55 -59 0 -3 -5 -1 -12 6 -7 7 -30
12 -52 12 -30 0 -37 -3 -26 -10 8 -5 10 -10 4 -10 -6 0 -14 3 -18 7 -4 5 -35
9 -69 10 -59 2 -91 12 -131 43 -38 28 -176 163 -176 172 0 13 90 9 159 -8z
m-129 -39 c7 -9 8 -15 2 -15 -5 0 -12 7 -16 15 -3 8 -4 15 -2 15 2 0 9 -7 16
-15z m446 -142 c-6 -6 -36 9 -36 18 0 5 9 4 20 -3 10 -7 18 -14 16 -15z m-123
-124 c45 -11 106 -29 135 -39 30 -11 58 -17 64 -14 7 5 8 2 3 -6 -6 -10 -1
-11 21 -6 21 5 25 4 14 -3 -12 -8 -8 -12 18 -17 17 -4 32 -11 32 -16 0 -5 5
-6 12 -2 8 5 9 2 5 -11 -6 -15 -3 -17 25 -11 24 4 29 3 18 -4 -12 -8 -11 -10
6 -10 12 0 27 -7 34 -15 18 -22 29 -18 24 8 -4 20 -4 20 5 2 4 -11 7 -23 4
-27 -2 -5 1 -8 6 -8 6 0 11 -4 11 -9 0 -21 -88 7 -122 39 -19 17 -36 20 -132
20 -69 1 -124 6 -146 15 -19 7 -51 19 -70 27 -19 7 -46 21 -59 30 -13 9 -29
14 -34 11 -6 -3 -7 -1 -3 5 5 8 -1 12 -14 12 -12 0 -19 4 -15 9 3 5 1 12 -5
16 -20 13 -9 24 28 27 20 2 41 2 45 0 4 -2 45 -12 90 -23z m3229 -4 c-9 -13
-19 -23 -22 -22 -11 1 -60 -27 -60 -35 0 -5 5 -6 10 -3 6 3 10 1 10 -5 0 -7
-8 -9 -21 -5 -16 5 -19 4 -14 -5 5 -9 4 -11 -4 -6 -16 10 -53 -3 -45 -16 4 -6
2 -8 -3 -5 -6 4 -30 0 -54 -8 -64 -23 -247 -22 -268 1 -9 9 -10 14 -3 10 7 -4
12 -2 12 5 0 7 3 10 6 6 4 -3 29 3 58 14 115 46 220 80 262 86 24 3 42 8 40
12 -2 3 22 4 55 3 l59 -4 -18 -23z m-2942 -39 c0 -3 -4 -8 -10 -11 -5 -3 -10
-1 -10 4 0 6 5 11 10 11 6 0 10 -2 10 -4z m2480 -15 c0 -5 -8 -15 -17 -22 -16
-12 -17 -12 -6 2 7 9 10 19 6 22 -3 4 -1 7 5 7 7 0 12 -4 12 -9z m45 -11 c-3
-5 -14 -10 -23 -9 -14 0 -13 2 3 9 27 11 27 11 20 0z m35 -90 c0 -5 -8 -10
-17 -10 -15 0 -16 2 -3 10 19 12 20 12 20 0z m110 -2 c0 -4 -9 -8 -21 -8 -11
0 -18 4 -15 8 3 5 12 9 21 9 8 0 15 -4 15 -9z m-2464 -63 c1 -8 -2 -15 -6 -15
-5 0 -8 9 -7 20 1 21 10 18 13 -5z m119 -73 c-6 -7 -35 18 -35 31 0 5 9 2 20
-8 11 -10 18 -20 15 -23z m6 -20 c-13 -2 -27 0 -32 5 -6 6 3 7 23 4 28 -4 29
-6 9 -9z m363 -22 c4 0 4 5 0 12 -5 7 -3 8 5 4 7 -5 10 -10 7 -13 -3 -3 20
-33 50 -67 31 -33 68 -86 83 -116 27 -54 27 -56 8 -75 -11 -12 -17 -14 -15 -6
2 8 -18 25 -47 40 -114 61 -120 67 -121 113 0 24 -4 66 -9 93 -8 49 -8 50 12
33 11 -10 23 -18 27 -18z m1140 -27 c-5 -27 -7 -70 -6 -96 2 -30 -1 -46 -7
-42 -15 9 -93 -34 -85 -47 5 -7 3 -8 -5 -4 -7 5 -19 0 -27 -10 -9 -11 -13 -14
-9 -7 4 9 -2 8 -21 -2 -15 -7 -34 -11 -42 -7 -11 4 -12 7 -4 10 7 2 12 9 12
15 0 7 10 32 22 57 12 25 20 51 19 59 -1 7 2 11 7 7 5 -3 35 22 67 54 74 75
89 77 79 13z m-1367 -29 c-3 -3 -12 -4 -19 -1 -8 3 -5 6 6 6 11 1 17 -2 13 -5z
m17 -26 c-3 -4 2 -9 10 -9 9 -1 21 -3 26 -4 6 -1 14 -3 20 -4 5 0 28 -17 49
-37 39 -35 45 -64 14 -64 -8 0 -11 -4 -8 -10 3 -6 -1 -7 -9 -4 -10 4 -16 1
-16 -7 0 -7 -3 -9 -6 -6 -4 3 -16 2 -27 -4 -25 -14 -257 -27 -249 -15 3 5 -5
7 -16 4 -14 -4 -20 -2 -16 4 5 7 -3 9 -22 5 -16 -3 -23 -4 -16 -1 8 4 -2 13
-24 25 -20 10 -41 16 -47 12 -6 -3 -7 -1 -3 5 3 6 -3 13 -14 17 -11 3 -24 15
-30 25 -8 16 -2 20 49 36 33 11 57 22 55 26 -3 4 1 6 8 3 7 -2 29 0 48 5 44
11 231 10 224 -2z m1593 -184 c-3 -3 -12 -4 -19 -1 -8 3 -5 6 6 6 11 1 17 -2
13 -5z"/>
<path d="M5057 3037 c-20 -29 -37 -60 -39 -68 -2 -7 -8 -19 -15 -27 -25 -27
-43 -134 -25 -146 11 -7 3 -64 -11 -73 -6 -3 -7 -1 -3 6 10 16 -32 81 -49 75
-15 -6 -47 -77 -64 -141 -13 -47 -11 -205 3 -214 4 -4 3 -10 -3 -13 -6 -4 -11
-2 -11 3 0 27 -23 6 -45 -41 -23 -49 -35 -135 -17 -125 4 3 7 -15 7 -40 0 -32
-5 -47 -17 -54 -10 -6 -18 -15 -18 -20 0 -6 5 -7 12 -3 7 4 8 3 4 -5 -4 -6
-11 -9 -16 -6 -5 3 -11 1 -14 -4 -14 -22 19 -22 37 0 12 14 18 17 14 7 -3 -9
4 -76 15 -147 18 -113 19 -135 8 -159 -8 -15 -15 -40 -17 -56 -3 -29 -3 -29
34 14 21 24 37 48 36 52 -2 4 3 5 11 2 7 -3 19 3 27 12 13 16 12 17 -7 12 -12
-3 -28 -1 -35 4 -11 8 -11 9 2 5 13 -4 20 6 32 41 9 26 16 41 16 34 1 -8 9
-10 26 -6 16 4 30 0 41 -11 13 -12 14 -16 3 -15 -8 1 -21 2 -29 1 -13 -1 -13
-2 0 -12 12 -8 12 -10 -5 -8 -11 1 -28 -1 -38 -6 -15 -6 -16 -10 -5 -16 21
-14 31 -10 24 7 -5 14 -4 15 8 5 11 -9 17 -8 30 4 8 9 18 16 21 15 20 -1 26 1
22 8 -6 9 129 10 138 1 3 -4 -1 -14 -10 -23 -9 -9 -13 -21 -9 -27 4 -7 3 -9
-3 -6 -14 9 -37 -19 -28 -34 5 -7 25 7 56 39 52 54 62 78 29 69 -11 -3 -20 -1
-20 4 0 5 -25 9 -55 9 -34 0 -55 4 -55 11 0 6 7 9 15 5 8 -3 15 -2 15 3 0 4
11 13 24 19 35 16 97 73 90 83 -3 5 -1 9 4 9 4 0 26 37 47 83 21 45 46 94 56
109 11 14 19 29 19 33 0 4 -27 5 -61 2 -42 -4 -65 -11 -75 -24 -9 -10 -12 -12
-9 -5 11 22 -45 -11 -91 -52 -41 -38 -49 -41 -58 -27 -12 19 8 43 53 66 25 13
56 32 67 44 12 11 24 18 27 15 8 -8 47 53 39 61 -4 5 -2 5 5 1 13 -7 107 169
98 184 -4 6 -1 10 4 10 6 0 11 5 11 11 0 6 7 17 15 25 21 22 19 44 -6 44 -11
0 -18 -3 -16 -7 3 -5 -16 -8 -41 -9 -50 -1 -117 -29 -107 -44 4 -6 2 -10 -4
-10 -6 0 -22 -12 -37 -27 -23 -25 -25 -25 -14 -5 6 12 8 33 5 45 -5 19 -5 20
5 5 19 -30 28 -20 19 20 -5 20 -9 66 -9 102 0 36 -5 94 -10 130 -5 36 -12 97
-16 135 -3 39 -10 74 -14 78 -4 5 -23 -16 -43 -46z m42 -119 c16 -112 16 -310
1 -338 -6 -11 -17 -20 -25 -20 -8 0 -19 -9 -25 -21 -7 -11 -14 -18 -17 -15 -4
3 1 14 11 24 15 17 15 22 1 48 -8 16 -15 35 -15 42 0 7 -3 11 -7 9 -9 -6 -10
3 -16 165 -2 65 -1 116 3 113 4 -2 18 16 30 40 13 25 28 45 35 45 6 0 16 -37
24 -92z m-174 -138 c-3 -5 -12 -10 -18 -10 -7 0 -6 4 3 10 19 12 23 12 15 0z
m5 -31 c0 -5 5 -7 12 -3 7 4 8 3 4 -4 -4 -6 3 -30 15 -54 42 -83 59 -148 59
-231 0 -78 -24 -197 -40 -197 -17 0 -74 105 -92 168 -24 89 -25 204 -2 275 11
31 25 57 32 57 6 0 12 -5 12 -11z m61 -72 c-10 -9 -11 -8 -5 6 3 10 9 15 12
12 3 -3 0 -11 -7 -18z m341 -44 c-20 -8 -63 -100 -55 -119 4 -11 2 -15 -4 -11
-13 8 -26 -20 -16 -36 3 -7 2 -9 -2 -4 -10 9 -66 -73 -59 -85 3 -5 2 -7 -3 -6
-13 4 -54 -28 -45 -36 4 -4 3 -6 -3 -5 -16 5 -56 -21 -50 -32 6 -9 -9 -14 -30
-9 -5 1 -18 2 -27 3 -11 1 -14 5 -8 12 19 23 70 180 64 198 -4 12 -2 17 4 13
6 -3 23 9 37 29 29 37 78 72 123 85 29 9 95 12 74 3z m-292 -63 c0 -5 -4 -10
-10 -10 -5 0 -10 5 -10 10 0 6 5 10 10 10 6 0 10 -4 10 -10z m60 -30 c0 -5 -5
-10 -11 -10 -5 0 -7 5 -4 10 3 6 8 10 11 10 2 0 4 -4 4 -10z m-20 -40 c0 -13
-7 -20 -20 -20 -19 0 -27 20 -13 33 13 14 33 6 33 -13z m-211 -125 c8 -32 16
-45 29 -45 13 0 14 -2 4 -9 -10 -6 -8 -24 13 -86 22 -63 25 -83 16 -102 -6
-14 -9 -29 -6 -34 4 -5 1 -9 -4 -9 -6 0 -11 -9 -11 -20 0 -21 15 -27 25 -10 4
6 10 8 14 5 5 -2 21 14 37 37 16 23 47 58 68 78 22 19 45 41 52 48 7 7 36 23
63 36 28 13 49 25 46 27 -2 3 8 4 23 3 19 0 27 -6 27 -20 1 -10 -2 -21 -5 -24
-4 -3 -17 -27 -30 -55 -13 -27 -30 -59 -39 -69 -15 -18 -15 -19 2 -13 11 4 16
3 12 -3 -3 -6 -13 -10 -22 -10 -9 0 -14 -3 -11 -6 10 -9 -64 -70 -106 -88 -56
-23 -142 -32 -170 -17 -18 10 -30 36 -52 114 -26 92 -30 98 -34 67 -3 -19 -6
16 -7 79 -2 84 2 121 13 142 21 42 40 36 53 -16z m418 -87 c-3 -8 -6 -5 -6 6
-1 11 2 17 5 13 3 -3 4 -12 1 -19z m-268 -22 c7 -8 8 -17 3 -20 -6 -3 -12 3
-15 14 -6 24 -4 25 12 6z m-29 -32 c0 -8 -6 -11 -15 -8 -9 4 -15 0 -15 -10 0
-9 -4 -16 -10 -16 -6 0 -6 9 1 23 11 25 39 32 39 11z m0 -40 c0 -8 -4 -12 -10
-9 -5 3 -10 10 -10 16 0 5 5 9 10 9 6 0 10 -7 10 -16z m-39 -80 c-5 -16 -10
-21 -10 -12 -1 18 10 51 15 45 2 -1 -1 -16 -5 -33z m26 4 c-3 -7 -5 -2 -5 12
0 14 2 19 5 13 2 -7 2 -19 0 -25z m-160 -10 c-3 -8 -6 -5 -6 6 -1 11 2 17 5
13 3 -3 4 -12 1 -19z m22 -66 c1 -7 -3 -10 -9 -7 -5 3 -10 18 -9 33 0 24 1 25
9 7 5 -11 9 -26 9 -33z m11 -52 c-18 -12 -30 -13 -30 -2 0 4 10 9 22 9 18 2
20 0 8 -7z m35 -40 c-3 -5 -14 -10 -23 -10 -15 0 -15 2 -2 10 20 13 33 13 25
0z m143 3 c-10 -2 -26 -2 -35 0 -10 3 -2 5 17 5 19 0 27 -2 18 -5z m-184 -109
c3 -8 2 -12 -4 -9 -6 3 -10 10 -10 16 0 14 7 11 14 -7z"/>
<path d="M5034 1785 c-31 -31 -49 -57 -45 -64 5 -7 26 8 60 45 67 72 53 89
-15 19z"/>
<path d="M4215 1409 c-19 -17 -32 -36 -28 -42 3 -5 1 -7 -5 -3 -13 8 -51 -44
-44 -63 3 -8 0 -11 -6 -7 -14 8 -74 -104 -68 -127 2 -9 1 -15 -4 -12 -4 3 -10
-8 -13 -23 -3 -15 -8 -36 -12 -48 -4 -14 -2 -21 7 -21 8 0 14 7 15 16 4 51 70
196 110 241 17 19 37 49 46 65 9 17 17 23 17 15 0 -9 6 -6 16 10 14 23 14 23
9 3 -7 -26 10 -32 19 -7 17 44 -10 46 -59 3z"/>
<path d="M3721 1051 c-21 -14 -21 -36 0 -49 15 -10 19 -9 20 0 0 7 2 23 5 36
4 24 -2 27 -25 13z"/>
<path d="M3770 878 c-2 -5 -3 -12 -4 -18 0 -5 -11 -17 -23 -25 -13 -9 -23 -21
-23 -26 0 -6 14 3 31 19 18 16 29 36 26 43 -3 8 -6 11 -7 7z"/>
</g>
</svg>
